<svg height="512" width="512" xmlns="http://www.w3.org/2000/svg"><path d="M36.851 443.136a16.54 16.54 0 01-2.065-20.889l27.87-41.809A8.005 8.005 0 0064 376V256h320v120a8 8 0 001.344 4.438l10.667 16 13.312-8.876L400 373.578V256h8a24.028 24.028 0 0024-24v-64a24.028 24.028 0 00-24-24h-28.686L270.628 35.313a65.944 65.944 0 00-93.256 0l-47.029 47.03 11.314 11.314 47.03-47.029a49.938 49.938 0 0170.626 0L356.687 144H91.313l34.344-34.343-11.314-11.314L68.686 144H40a24.028 24.028 0 00-24 24v64a24.028 24.028 0 0024 24h8v117.578l-26.529 39.8A32.568 32.568 0 0048.56 464H144v-16H48.56a16.42 16.42 0 01-11.709-4.864zM32 232v-64a8.009 8.009 0 018-8h368a8.009 8.009 0 018 8v64a8.009 8.009 0 01-8 8H40a8.009 8.009 0 01-8-8z"/><path d="M494.74 441.993a40.021 40.021 0 00-35.962-49.9 39.767 39.767 0 00-17.344 2.645C418.958 403.539 396.7 408 375.266 408H368v-32a8 8 0 00-8-8h-62.4l-22.7-17.654a30.121 30.121 0 00-38.5 1.264l-58.3 51.814A30.148 30.148 0 00168 425.93v.455a96.1 96.1 0 00-7.5 28.777c-.33 3.177-.5 32.838-.5 32.838a8 8 0 008 8h192a8 8 0 008-8v-32h5.6c24.311 0 46.769 4.313 66.751 12.82A40.025 40.025 0 00486 458.461l-12-10.588a24.027 24.027 0 01-27.38 6.226C424.647 444.743 400.081 440 373.6 440H368v-16h7.266c23.434 0 47.659-4.832 72-14.361a24.01 24.01 0 0132.673 20.64 24.22 24.22 0 01-.7 7.728zM188.734 415.38l58.29-51.811a14.236 14.236 0 0113.986-2.8 13.942 13.942 0 014.069 2.2L320 405.693V416h-65.518A114.494 114.494 0 00184 440.352V425.93a14.137 14.137 0 014.734-10.55zM352 480H176.741a43.111 43.111 0 0114.818-25.219A98.478 98.478 0 01254.482 432H328a8 8 0 008-8v-40h16zM80 272h16v16H80zm0 32h16v64H80zm88-224h16v16h-16zm24 32h16v16h-16zm64-32h16v16h-16z"/></svg>