<svg height="512" width="512" xmlns="http://www.w3.org/2000/svg"><path d="M340.81 423.539l-76.319 70.068c-4.84 4.444-12.141 4.445-16.982 0L57.484 319.144c-1.681-1.543-.568-4.377 1.705-4.377h25.893a7.514 7.514 0 007.514-7.514V152.026a7.514 7.514 0 10-15.028 0V299.74H59.189c-7.289 0-13.708 4.389-16.353 11.181-2.644 6.793-.884 14.366 4.485 19.294l190.024 174.461C242.412 509.328 249.113 512 256 512c6.886 0 13.588-2.672 18.654-7.324l76.319-70.068a7.514 7.514 0 00.453-10.616 7.513 7.513 0 00-10.616-.453zm128.353-112.618c-2.645-6.793-9.064-11.182-16.353-11.182h-18.379V27.583C434.432 12.373 422.058 0 406.849 0H105.151C89.942 0 77.568 12.373 77.568 27.583v94.339a7.514 7.514 0 1015.028 0V27.583c0-6.923 5.632-12.555 12.555-12.555h301.697c6.923 0 12.555 5.633 12.555 12.555v279.671a7.514 7.514 0 007.514 7.514h25.892c2.274 0 3.387 2.834 1.705 4.378l-91.505 84.011a7.514 7.514 0 1010.164 11.069l91.505-84.01c5.37-4.929 7.13-12.503 4.485-19.295z"/><path d="M318.819 156.109a7.514 7.514 0 007.514-7.514v-26.681c0-2.877-1.723-5.583-4.326-6.804l-62.819-29.431a7.522 7.522 0 00-6.375 0l-62.819 29.431c-2.633.958-4.326 4.138-4.326 6.804v72.756l-58.493 27.404c-2.603 1.223-4.326 3.927-4.326 6.805v77.534a7.516 7.516 0 004.326 6.805l62.819 29.431c1.999.927 4.377.938 6.376 0L256 314.712l59.631 27.938c1.992.928 4.384.941 6.375 0l62.819-29.431a7.514 7.514 0 004.326-6.805V228.88c0-2.877-1.723-5.583-4.326-6.805l-58.492-27.404V178.7a7.514 7.514 0 10-15.028 0v15.972l-47.791 22.39v-60.938l47.791-22.391v14.863a7.512 7.512 0 007.514 7.513zm-118.124-22.376l47.791 22.391v60.939l-47.791-22.391zm-7.514 74.014l45.107 21.133-45.107 21.133-45.108-21.133zm-55.305 32.951l47.791 22.391v60.938l-47.791-22.39zm62.819 22.39l47.791-22.391v60.939l-47.791 22.391zm110.61 60.939l-47.791-22.391v-60.939l47.791 22.391zm15.027 0v-60.938l47.791-22.391v60.939zm-7.513-116.28l45.108 21.133-45.108 21.133-45.107-21.133zM256 143.048l-45.108-21.134L256 100.781l45.108 21.134z"/></svg>