<svg height="640" viewBox="-32 0 480 480.011" width="640" xmlns="http://www.w3.org/2000/svg"><path d="M128.004 280.012c8.84 0 16 7.164 16 16a8 8 0 0016 0c-.055-14.547-9.914-27.227-24-30.864v-9.136a8 8 0 00-16 0v9.136c-15.586 4.012-25.75 18.993-23.719 34.957 2.031 15.965 15.625 27.926 31.719 27.907 8.84 0 16 7.164 16 16s-7.16 16-16 16c-8.836 0-16-7.164-16-16a8 8 0 00-16 0c.055 14.547 9.918 27.226 24 30.863v9.137a8 8 0 0016 0v-9.114c15.637-3.972 25.851-18.98 23.816-34.98-2.035-16.004-15.683-27.977-31.816-27.906-8.836 0-16-7.164-16-16s7.164-16 16-16zm24-80h-48a8 8 0 000 16h48a8 8 0 000-16zm0 224h-48a8 8 0 000 16h48a8 8 0 000-16zm0 0"/><path d="M406.348 308.012L288.902 104.609a134.716 134.716 0 0019.055-23.742c13.336-21.601 15.719-42.105 6.703-57.719-17.941-31.082-74.605-30.832-129 .567a197.926 197.926 0 00-20.797 14.023l-6.457-7.328a40.598 40.598 0 00-30.402-13.726A40.596 40.596 0 0097.605 30.41l-87.457 99.106A40.518 40.518 0 00.004 156.348v251.664c.047 39.746 32.254 71.957 72 72h112c39.746-.043 71.957-32.254 72-72V156.348a40.431 40.431 0 00-6.399-21.739h.063a195.416 195.416 0 0027.137-18.925l115.687 200.328c15.477 26.785 6.305 61.043-20.488 76.511l-96.992 56a55.513 55.513 0 01-13.598 5.536 8.002 8.002 0 00-5.676 9.789 7.999 7.999 0 009.79 5.675 71.936 71.936 0 0017.445-7.144l96.992-56c34.457-19.871 46.273-63.918 26.383-98.367zm-166.344 100c-.035 30.914-25.086 55.965-56 56h-112c-30.91-.035-55.965-25.086-56-56V156.348a24.555 24.555 0 016.144-16.25l87.457-99.094a24.538 24.538 0 0118.399-8.32 24.546 24.546 0 0118.402 8.32l78.024 88.422a132.423 132.423 0 01-57.047 12.656c.363-2.004.57-4.035.62-6.07-.023-22.082-17.917-39.973-40-40a7.804 7.804 0 00-2.566.52 7.912 7.912 0 00-8.68 6.105 44.718 44.718 0 003.911 32.484 43.343 43.343 0 0023.336 18.7 23.894 23.894 0 01-25.82 4.175 23.902 23.902 0 01-14.18-21.984 8 8 0 00-16 0c-.02 17.734 11.652 33.36 28.668 38.367 17.012 5.008 35.289-1.8 44.879-16.719 3.148.332 6.312.508 9.48.52a154.292 154.292 0 0064.246-16.176 24.453 24.453 0 014.727 14.344zm-88-272a23.88 23.88 0 01-.352 3.496 29.08 29.08 0 01-17.125-12.387 25.665 25.665 0 01-3.043-14.758c11.75 1.723 20.473 11.774 20.52 23.649zm89.656-15.328c-.797.464-1.598.863-2.398 1.312L175.5 49.73a181.465 181.465 0 0118.16-12.12c45.067-26.032 94.137-28.973 107.137-6.4 5.945 10.282 3.648 24.962-6.457 41.321a114.532 114.532 0 01-13.758 17.735l-.082-.145a40.526 40.526 0 00-22.2-18.168l-31.327-10.59a8 8 0 00-9.914 5.102 7.997 7.997 0 004.82 10.058l31.328 10.536a24.585 24.585 0 0113.438 11l2.039 3.527a178.241 178.241 0 01-27.024 19.121zm0 0"/><path d="M273.078 322.469a7.997 7.997 0 0010.926 2.926l55.426-32a8.002 8.002 0 004.047-6.938 7.999 7.999 0 00-12.047-6.918l-55.426 32a8.001 8.001 0 00-2.926 10.93zm10.129 49.543a7.994 7.994 0 0010.926 2.933l69.281-40a7.998 7.998 0 002.93-10.93 8.003 8.003 0 00-10.93-2.933l-69.281 40a8.001 8.001 0 00-2.926 10.93zm4.52-96.184a8.005 8.005 0 004-1.074l27.71-16a8.002 8.002 0 004.047-6.938 7.999 7.999 0 00-12.047-6.918l-27.71 16a8 8 0 004 14.93zm0 0"/></svg>