<?xml version="1.0" standalone="no"?>
<!DOCTYPE svg PUBLIC "-//W3C//DTD SVG 20010904//EN"
 "http://www.w3.org/TR/2001/REC-SVG-20010904/DTD/svg10.dtd">
<svg version="1.0" xmlns="http://www.w3.org/2000/svg"
 width="141.000000pt" height="141.000000pt" viewBox="0 0 141.000000 141.000000"
 preserveAspectRatio="xMidYMid meet">
<metadata>
Created by potrace 1.11, written by Peter Selinger 2001-2013
</metadata>
<g transform="translate(0.000000,141.000000) scale(0.100000,-0.100000)"
fill="#000000" stroke="none">
<path d="M710 1018 c0 -14 -67 -88 -78 -88 -4 0 -22 -14 -41 -30 -18 -17 -36
-28 -41 -25 -5 3 -14 -4 -20 -15 -9 -16 -18 -19 -47 -16 -38 5 -53 19 -53 49
0 9 -4 17 -10 17 -5 0 -10 7 -10 15 0 8 -15 18 -35 24 -41 11 -58 10 -78 -8
-14 -11 -12 -17 16 -48 83 -92 129 -133 147 -133 11 0 19 -3 18 -7 0 -5 3 -18
8 -30 7 -16 13 -20 23 -13 12 7 12 12 3 23 -15 17 -2 25 38 23 19 -1 25 -7 24
-24 0 -13 5 -22 14 -22 11 0 13 -15 8 -77 -3 -43 -5 -88 -6 -100 0 -36 -34
-64 -72 -59 -78 10 -207 25 -266 30 -47 5 -30 -7 31 -20 82 -18 179 -43 212
-55 17 -6 41 -12 54 -15 14 -3 29 -8 35 -12 6 -3 19 -5 29 -4 9 2 17 -2 17 -7
0 -6 7 -11 16 -11 14 0 14 3 4 15 -11 13 -10 14 6 9 10 -4 24 -11 31 -16 7 -6
18 -8 25 -5 8 3 1 9 -16 16 -42 17 -29 20 34 10 85 -14 263 -22 257 -12 -3 5
8 43 26 84 29 67 31 79 22 123 -7 37 -6 51 3 54 41 13 47 45 22 107 -33 78
-41 93 -79 133 -29 31 -41 52 -41 74 0 33 -27 69 -39 50 -9 -16 -92 -52 -118
-52 -26 0 -67 36 -58 50 4 6 1 10 -4 10 -6 0 -11 -6 -11 -12z m70 -354 c0 -15
6 -24 15 -24 18 0 19 14 5 41 -17 31 4 21 22 -11 14 -25 21 -29 46 -24 24 5
34 0 60 -30 38 -44 41 -81 11 -145 -30 -68 -31 -69 -97 -58 l-59 9 -21 52
c-34 80 -52 149 -43 160 9 13 -12 59 -22 49 -4 -3 -7 -1 -7 5 0 30 36 5 45
-31 11 -41 24 -32 20 14 -3 34 -2 39 11 28 8 -6 14 -22 14 -35z m83 37 l22 12
-20 -20 c-22 -23 -35 -21 -34 5 0 10 3 12 6 5 3 -10 10 -10 26 -2z m-178 -120
c3 -17 11 -33 16 -36 11 -7 37 -64 41 -90 2 -12 -2 -19 -10 -17 -7 1 -25 4
-40 6 -15 2 -35 6 -44 10 -10 3 -24 8 -32 10 -16 5 -12 83 6 112 4 5 6 23 6
40 -1 16 2 40 7 53 7 22 8 21 25 -16 10 -22 21 -54 25 -72z m298 -116 c-16
-47 -41 -77 -28 -34 17 61 29 88 36 83 4 -2 1 -25 -8 -49z"/>
<path d="M15 521 c-14 -6 6 -9 60 -10 44 -1 93 -4 110 -7 34 -6 29 4 -6 12
-46 10 -144 13 -164 5z"/>
</g>
</svg>
